# xmcd
#
# Track frame offsets:
#	150
#	4108
#	29350
#	52450
#	70478
#	84190
#	97211
#	115873
#	137809
#	168828
#	188219
#	210429
#	231255
#	248520
#	272821
#	291558
#	308990
#
# Disc length: 4353
#
# Revision: 1
# Processed by: cddbd v1.5.1PL0 Copyright (c) Steve Scherf et al.
# Submitted via: FreeRIP 2.51 
# Normalized: r0:DSETVAR1,TDELIM( - )
#
DISCID=fb10ff11
DTITLE=Various Artist - Ebony Elements 2
DYEAR=1999
DGENRE=R&B
TTITLE0=Attica Blues - Intro (Original Mix)
TTITLE1=Attica Blues - Blueprint (Original Mix)
TTITLE2=Bizarre Inc. - Keep The Music Strong (Bizarre Inc. Mix)
TTITLE3=DJ Kool - Here We Go Again (Original Mix)
TTITLE4=Queen Latifah - It's Allright (Remix)
TTITLE5=Global Communication - The Groove (Extended Skit)
TTITLE6=Tracy Lee Featuring Busta Rhymes And Pirate Of The Reepz - The Theme (The Afterparty Remix)
TTITLE7=Jesse Powell - All I Need (LP Version)
TTITLE8=Nu Yorican Soul Featuring Jocelyn Brown And Q-Trip - I Am The Black Gold Of The Sun (Masters At Work Remix)
TTITLE9=Horace Brown Featuring The Lost Boyz - One For The Money (Buttnaked Remix)
TTITLE10=Mandalay And Guy Sigworth - This Life (Wagon Christ Remix)
TTITLE11=Done By Know How - Rid On The Rhythm (Original Mix)
TTITLE12=The Chimes - Heaven (Original Mix)
TTITLE13=Crustation - Flame (12 Inch Master Mix)
TTITLE14=Oran Juice Jones Featuring Stu Large And Camp Lo - Poppin' That Fly (Clark Kent Remix)
TTITLE15=Allure Featuring Nas - Head Over Heals (Original Track Masters Mix)
TTITLE16=Lakiesha Berri - Like This And Like That (Funkshun RnB Mix)
EXTD=
EXTT0=
EXTT1=
EXTT2=
EXTT3=
EXTT4=
EXTT5=
EXTT6=
EXTT7=
EXTT8=
EXTT9=
EXTT10=
EXTT11=
EXTT12=
EXTT13=
EXTT14=
EXTT15=
EXTT16=
PLAYORDER=
